<svg width="502" height="502" viewBox="0 0 502 502" fill="none" xmlns="http://www.w3.org/2000/svg">
  <rect width="502" height="502" rx="100" fill="#10b981"/>
  <path d="M251 150C210 150 175 185 175 225V260H165C155 260 145 270 145 280V360C145 370 155 380 165 380H337C347 380 357 370 357 360V280C357 270 347 260 337 260H327V225C327 185 292 150 251 150Z" fill="white" opacity="0.9"/>
  <circle cx="251" cy="300" r="25" fill="#10b981"/>
  <path d="M251 285V300M251 315V320" stroke="white" stroke-width="6" stroke-linecap="round"/>
  <rect x="200" y="220" width="102" height="50" rx="10" fill="#059669"/>
  <text x="251" y="255" font-family="Arial" font-size="20" font-weight="bold" fill="white" text-anchor="middle">CP</text>
</svg>
